<svg version="1.1" id="Layer_1" xmlns="http://www.w3.org/2000/svg" xmlns:xlink="http://www.w3.org/1999/xlink" x="0px" y="0px"
	 width="100%" viewBox="0 0 1563 1563" enable-background="new 0 0 1563 1563" xml:space="preserve">
<path fill="#FFFFFF" opacity="1.000000" stroke="none" 
	d="
M692.000000,1564.000000 
	C461.333374,1564.000000 231.166748,1564.000000 1.000093,1564.000000 
	C1.000062,1043.000122 1.000062,522.000244 1.000031,1.000302 
	C521.999756,1.000202 1042.999512,1.000202 1563.999512,1.000101 
	C1563.999634,521.999695 1563.999634,1042.999390 1563.999756,1563.999512 
	C1273.500000,1564.000000 983.000000,1564.000000 692.000000,1564.000000 
M874.797974,908.955750 
	C897.394287,908.955750 919.990662,908.955750 943.177002,908.955750 
	C943.177002,812.334106 943.177002,716.309570 943.177002,619.998718 
	C945.752136,619.998718 947.736389,619.998718 949.720642,619.998718 
	C1004.372864,619.998718 1059.025635,619.854004 1113.676758,620.095825 
	C1128.170288,620.159912 1141.993164,617.848816 1155.209961,612.021729 
	C1180.024414,601.081482 1197.543213,583.045715 1208.184570,558.054138 
	C1213.080078,546.557068 1214.863892,534.506531 1215.727905,522.309509 
	C1216.381714,513.078369 1215.857422,503.763702 1215.857422,494.259888 
	C1213.817749,494.153107 1212.355835,494.009521 1210.893799,494.009460 
	C982.787598,493.999512 754.681458,493.998108 526.575256,494.040192 
	C525.040161,494.040466 523.505127,494.647827 521.304321,495.511566 
	C521.202881,497.332306 521.012756,499.153076 521.012634,500.973816 
	C520.999329,729.263184 521.000000,957.552551 521.000000,1185.841919 
	C521.000000,1187.780762 521.000000,1189.719482 521.000000,1191.086548 
	C534.166565,1191.086548 546.759155,1191.465454 559.319153,1190.987427 
	C573.895935,1190.432373 587.102966,1185.122803 599.538940,1177.719482 
	C614.905396,1168.571411 626.515808,1155.906250 635.484985,1140.510742 
	C643.231079,1127.214722 647.074829,1113.096191 647.045593,1097.699585 
	C646.930298,1036.878174 646.998596,976.056519 646.998779,915.234924 
	C646.998779,913.288879 646.998779,911.342773 646.998779,909.000000 
	C649.476257,909.000000 651.441711,909.000000 653.407166,909.000000 
	C724.726746,909.000000 796.046387,909.001648 867.365967,908.991760 
	C869.528259,908.991516 871.690491,908.870544 874.797974,908.955750 
z"/>
<path fill="#FCE746" opacity="1.000000" stroke="none" 
	d="
M521.970093,494.971680 
	C523.505127,494.647827 525.040161,494.040466 526.575256,494.040192 
	C754.681458,493.998108 982.787598,493.999512 1210.893799,494.009460 
	C1212.355835,494.009521 1213.817749,494.153107 1215.857422,494.259888 
	C1215.857422,503.763702 1216.381714,513.078369 1215.727905,522.309509 
	C1214.863892,534.506531 1213.080078,546.557068 1208.184570,558.054138 
	C1197.543213,583.045715 1180.024414,601.081482 1155.209961,612.021729 
	C1141.993164,617.848816 1128.170288,620.159912 1113.676758,620.095825 
	C1059.025635,619.854004 1004.372864,619.998718 949.720642,619.998718 
	C947.736389,619.998718 945.752136,619.998718 943.177002,619.998718 
	C943.177002,716.309570 943.177002,812.334106 943.177002,908.955750 
	C919.990662,908.955750 897.394287,908.955750 874.107483,908.631348 
	C864.286621,902.696045 854.181152,898.204407 846.212036,891.260803 
	C823.879700,871.802612 812.054382,846.936707 812.002747,816.940430 
	C811.983276,805.610962 811.982666,794.281494 811.984619,782.486450 
	C811.995728,728.144348 811.995728,674.267761 811.995728,620.326172 
	C810.711060,620.167847 810.070435,620.019531 809.429810,620.019775 
	C755.319885,620.039856 701.210022,620.071472 647.066162,619.628357 
	C647.021484,608.658264 646.721985,598.152161 647.081177,587.668701 
	C647.441528,577.151001 644.790283,567.366760 640.895264,557.844849 
	C634.487427,542.180176 624.444580,528.988281 611.504333,518.288574 
	C597.522583,506.727692 581.614685,498.642731 563.228149,497.066681 
	C549.516357,495.891357 535.725647,495.636475 521.970093,494.971680 
z"/>
<path fill="#FEAC00" opacity="1.000000" stroke="none" 
	d="
M521.637207,495.241638 
	C535.725647,495.636475 549.516357,495.891357 563.228149,497.066681 
	C581.614685,498.642731 597.522583,506.727692 611.504333,518.288574 
	C624.444580,528.988281 634.487427,542.180176 640.895264,557.844849 
	C644.790283,567.366760 647.441528,577.151001 647.081177,587.668701 
	C646.721985,598.152161 647.021484,608.658264 647.023071,620.089050 
	C647.013977,674.920166 647.013977,728.816650 647.013977,782.952026 
	C702.419312,782.952026 757.196350,782.952026 811.973450,782.952026 
	C811.982666,794.281494 811.983276,805.610962 812.002747,816.940430 
	C812.054382,846.936707 823.879700,871.802612 846.212036,891.260803 
	C854.181152,898.204407 864.286621,902.696045 873.634888,908.556396 
	C871.690491,908.870544 869.528259,908.991516 867.365967,908.991760 
	C796.046387,909.001648 724.726746,909.000000 653.407166,909.000000 
	C651.441711,909.000000 649.476257,909.000000 646.998779,909.000000 
	C646.998779,911.342773 646.998779,913.288879 646.998779,915.234924 
	C646.998596,976.056519 646.930298,1036.878174 647.045593,1097.699585 
	C647.074829,1113.096191 643.231079,1127.214722 635.484985,1140.510742 
	C626.515808,1155.906250 614.905396,1168.571411 599.538940,1177.719482 
	C587.102966,1185.122803 573.895935,1190.432373 559.319153,1190.987427 
	C546.759155,1191.465454 534.166565,1191.086548 521.000000,1191.086548 
	C521.000000,1189.719482 521.000000,1187.780762 521.000000,1185.841919 
	C521.000000,957.552551 520.999329,729.263184 521.012634,500.973816 
	C521.012756,499.153076 521.202881,497.332306 521.637207,495.241638 
z"/>
<path fill="#FFFFFF" opacity="1.000000" stroke="none" 
	d="
M811.984619,782.486450 
	C757.196350,782.952026 702.419312,782.952026 647.013977,782.952026 
	C647.013977,728.816650 647.013977,674.920166 647.057007,620.562988 
	C701.210022,620.071472 755.319885,620.039856 809.429810,620.019775 
	C810.070435,620.019531 810.711060,620.167847 811.995728,620.326172 
	C811.995728,674.267761 811.995728,728.144348 811.984619,782.486450 
z"/>
</svg>