<svg version="1.1" id="Layer_1" xmlns="http://www.w3.org/2000/svg" xmlns:xlink="http://www.w3.org/1999/xlink" x="0px" y="0px"
	 width="100%" viewBox="0 0 500 500" enable-background="new 0 0 500 500" xml:space="preserve">
<path fill="#FFFFFF" opacity="1.000000" stroke="none" 
	d="
M333.000000,501.000000 
	C222.000031,501.000000 111.500053,501.000000 1.000059,501.000000 
	C1.000040,334.333405 1.000040,167.666794 1.000020,1.000149 
	C167.666565,1.000099 334.333130,1.000099 500.999756,1.000050 
	C500.999847,167.666519 500.999847,334.333038 500.999939,500.999786 
	C445.166656,501.000000 389.333344,501.000000 333.000000,501.000000 
M167.002136,432.530426 
	C220.726990,456.456757 275.045563,457.879272 329.209564,434.949860 
	C438.002655,388.894165 482.973450,259.334930 426.749664,155.515991 
	C377.854797,65.230125 267.097260,26.581579 172.832703,66.912338 
	C87.164162,103.565338 37.911369,192.899933 54.158535,284.928223 
	C66.148178,352.840759 104.625412,401.617859 167.002136,432.530426 
z"/>
<path fill="#262827" opacity="1.000000" stroke="none" 
	d="
M166.671265,432.350403 
	C104.625412,401.617859 66.148178,352.840759 54.158535,284.928223 
	C37.911369,192.899933 87.164162,103.565338 172.832703,66.912338 
	C267.097260,26.581579 377.854797,65.230125 426.749664,155.515991 
	C482.973450,259.334930 438.002655,388.894165 329.209564,434.949860 
	C275.045563,457.879272 220.726990,456.456757 166.671265,432.350403 
M180.053116,158.860321 
	C176.104980,158.860321 172.156860,158.860321 168.012115,158.860321 
	C168.012115,233.442551 168.012115,307.475677 168.012115,381.458282 
	C189.845551,385.264435 208.634918,370.477966 207.875168,348.207306 
	C207.290512,331.068817 207.751602,313.894379 207.770645,296.735931 
	C207.772583,294.982697 207.932327,293.229614 208.044403,290.958435 
	C232.022766,290.958435 255.480438,290.958435 279.870209,291.130920 
	C287.285614,291.130920 294.700989,291.130920 302.524506,291.130920 
	C302.524506,260.070923 302.524506,229.641006 302.524506,198.797607 
	C304.760620,198.797607 306.567627,198.797638 308.374634,198.797592 
	C324.368835,198.797287 340.363159,198.829453 356.357239,198.788818 
	C378.741486,198.731949 392.869598,181.482086 388.670502,158.838577 
	C387.131958,158.838577 385.503296,158.838562 383.874634,158.838577 
	C318.065125,158.838989 252.255630,158.837738 186.446136,158.848419 
	C184.617752,158.848724 182.789398,158.976685 180.053116,158.860321 
z"/>
<path fill="#FBE646" opacity="1.000000" stroke="none" 
	d="
M180.961029,159.045105 
	C182.789398,158.976685 184.617752,158.848724 186.446136,158.848419 
	C252.255630,158.837738 318.065125,158.838989 383.874634,158.838577 
	C385.503296,158.838562 387.131958,158.838577 388.670502,158.838577 
	C392.869598,181.482086 378.741486,198.731949 356.357239,198.788818 
	C340.363159,198.829453 324.368835,198.797287 308.374634,198.797592 
	C306.567627,198.797638 304.760620,198.797607 302.524506,198.797607 
	C302.524506,229.641006 302.524506,260.070923 302.524506,291.130920 
	C294.700989,291.130920 287.285614,291.130920 279.204468,290.782410 
	C266.535431,283.996429 260.220428,274.258575 260.914551,260.349457 
	C261.070526,257.224304 260.828339,254.079224 260.783966,250.473328 
	C260.798462,233.093124 260.798462,216.182907 260.798462,198.794662 
	C242.817627,198.794662 225.397507,198.794662 207.973907,198.345337 
	C207.972763,189.982407 207.808517,182.196121 203.703201,174.938644 
	C198.595108,165.908463 190.314514,161.800842 180.961029,159.045105 
z"/>
<path fill="#FDAB00" opacity="1.000000" stroke="none" 
	d="
M260.769470,250.943314 
	C260.828339,254.079224 261.070526,257.224304 260.914551,260.349457 
	C260.220428,274.258575 266.535431,283.996429 278.738403,290.696167 
	C255.480438,290.958435 232.022766,290.958435 208.044403,290.958435 
	C207.932327,293.229614 207.772583,294.982697 207.770645,296.735931 
	C207.751602,313.894379 207.290512,331.068817 207.875168,348.207306 
	C208.634918,370.477966 189.845551,385.264435 168.012115,381.458282 
	C168.012115,307.475677 168.012115,233.442551 168.012115,158.860321 
	C172.156860,158.860321 176.104980,158.860321 180.507080,158.952713 
	C190.314514,161.800842 198.595108,165.908463 203.703201,174.938644 
	C207.808517,182.196121 207.972763,189.982407 207.885071,198.821686 
	C207.799713,216.785385 207.799713,233.823410 207.799713,250.943314 
	C225.929260,250.943314 243.349365,250.943314 260.769470,250.943314 
z"/>
<path fill="#262827" opacity="1.000000" stroke="none" 
	d="
M260.783966,250.473328 
	C243.349365,250.943314 225.929260,250.943314 207.799713,250.943314 
	C207.799713,233.823410 207.799713,216.785385 207.888550,199.271011 
	C225.397507,198.794662 242.817627,198.794662 260.798462,198.794662 
	C260.798462,216.182907 260.798462,233.093124 260.783966,250.473328 
z"/>
</svg>